<?xml version="1.0" encoding="UTF-8" standalone="no"?>
<!-- Created with Inkscape (http://www.inkscape.org/) -->
<svg
   xmlns:dc="http://purl.org/dc/elements/1.1/"
   xmlns:cc="http://creativecommons.org/ns#"
   xmlns:rdf="http://www.w3.org/1999/02/22-rdf-syntax-ns#"
   xmlns:svg="http://www.w3.org/2000/svg"
   xmlns="http://www.w3.org/2000/svg"
   xmlns:sodipodi="http://sodipodi.sourceforge.net/DTD/sodipodi-0.dtd"
   xmlns:inkscape="http://www.inkscape.org/namespaces/inkscape"
   width="716.61646"
   height="331.53616"
   id="svg2666"
   sodipodi:version="0.32"
   inkscape:version="0.46"
   sodipodi:docname="drawing.svg"
   inkscape:output_extension="org.inkscape.output.svg.inkscape"
   version="1.0">
  <defs
     id="defs2668" />
  <sodipodi:namedview
     id="base"
     pagecolor="#ffffff"
     bordercolor="#ffffff"
     borderopacity="0.0"
     inkscape:pageopacity="0.0"
     inkscape:pageshadow="0"
     inkscape:zoom="0.35"
     inkscape:cx="350"
     inkscape:cy="17.93849"
     inkscape:document-units="px"
     inkscape:current-layer="layer1"
     showgrid="false"
     inkscape:window-width="640"
     inkscape:window-height="707"
     inkscape:window-x="0"
     inkscape:window-y="25" />
  <metadata
     id="metadata2671">
    <rdf:RDF>
      <cc:Work
         rdf:about="">
        <dc:format>image/svg+xml</dc:format>
        <dc:type
           rdf:resource="http://purl.org/dc/dcmitype/StillImage" />
      </cc:Work>
    </rdf:RDF>
  </metadata>
  <g
     inkscape:label="Layer 1"
     inkscape:groupmode="layer"
     id="layer1"
     transform="translate(-2.0529693e-8,-720.82606)">
    <g
       id="content"
       transform="matrix(1.249992,0,0,-1.249992,-0.661752,1053.3455)"
       xml:space="preserve"
       stroke-miterlimit="10.433"
       fill-rule="even-odd"
       font-style="normal"
       font-variant="normal"
       font-weight="normal"
       font-stretch="normal"
       font-size-adjust="none"
       letter-spacing="normal"
       word-spacing="normal"
       style="font-style:normal;font-variant:normal;font-weight:normal;font-stretch:normal;letter-spacing:normal;word-spacing:normal;text-anchor:start;fill:none;fill-opacity:1;stroke:#000000;stroke-linecap:butt;stroke-linejoin:miter;stroke-miterlimit:10.43299961;stroke-dasharray:none;stroke-dashoffset:0;stroke-opacity:1">
<line
   x1="179.34"
   y1="207.91"
   x2="179.34"
   y2="77.519997"
   id="line2510"
   style="stroke-width:2.83450007" />
<line
   x1="199.17999"
   y1="207.91"
   x2="199.17999"
   y2="77.519997"
   id="line2512"
   style="stroke-width:2.83450007" />
<text
   transform="matrix(0.69998,0,0,-0.69998,179.34,57.676)"
   font-size="20px"
   id="text2514"
   style="font-size:20px;fill:#000000;stroke:none;font-family:'Helvetica,sans-serif'">TT</text>

<polygon
   points="0.76562,111.53 111.31,111.53 111.31,171.06 0.76562,171.06 0.76562,111.53 "
   id="polygon2516"
   style="stroke-width:0.47242999" />
<line
   x1="12.102"
   y1="154.05"
   x2="12.102"
   y2="125.7"
   id="line2518"
   style="stroke-width:0.47242999" />
<line
   x1="14.938"
   y1="154.05"
   x2="14.938"
   y2="125.7"
   id="line2520"
   style="stroke-width:0.47242999" />
<line
   x1="17.77"
   y1="154.05"
   x2="17.77"
   y2="125.7"
   id="line2522"
   style="stroke-width:0.47242999" />
<line
   x1="20.605"
   y1="154.05"
   x2="20.605"
   y2="125.7"
   id="line2524"
   style="stroke-width:0.47242999" />
<line
   x1="23.441"
   y1="154.05"
   x2="23.441"
   y2="125.7"
   id="line2526"
   style="stroke-width:0.47242999" />
<line
   x1="26.273001"
   y1="154.05"
   x2="26.273001"
   y2="125.7"
   id="line2528"
   style="stroke-width:0.47242999" />
<line
   x1="31.945"
   y1="154.05"
   x2="31.945"
   y2="125.7"
   id="line2530"
   style="stroke-width:0.47242999" />
<line
   x1="40.449001"
   y1="154.05"
   x2="40.449001"
   y2="125.7"
   id="line2532"
   style="stroke-width:0.47242999" />
<line
   x1="54.620998"
   y1="154.05"
   x2="54.620998"
   y2="125.7"
   id="line2534"
   style="stroke-width:0.47242999" />
<line
   x1="71.628998"
   y1="154.05"
   x2="71.628998"
   y2="125.7"
   id="line2536"
   style="stroke-width:0.47242999" />
<line
   x1="94.305"
   y1="154.05"
   x2="94.305"
   y2="125.7"
   id="line2538"
   style="stroke-width:0.47242999" />
<text
   transform="matrix(0.69998,0,0,-0.69998,40.447,91.69)"
   font-size="20px"
   id="text2540"
   style="font-size:20px;fill:#000000;stroke:none;font-family:'Helvetica,sans-serif'">Velo</text>

<line
   x1="386.26001"
   y1="264.60001"
   x2="386.26001"
   y2="20.827999"
   id="line2542"
   style="stroke-width:2.83450007" />
<line
   x1="414.60999"
   y1="264.60001"
   x2="414.60999"
   y2="20.827999"
   id="line2544"
   style="stroke-width:2.83450007" />
<line
   x1="442.95001"
   y1="264.60001"
   x2="442.95001"
   y2="20.827999"
   id="line2546"
   style="stroke-width:2.83450007" />
<text
   transform="matrix(0.69998,0,0,-0.69998,380.59,0.98486)"
   font-size="20px"
   id="text2548"
   style="font-size:20px;fill:#000000;stroke:none;font-family:'Helvetica,sans-serif'">T1</text>

<text
   transform="matrix(0.69998,0,0,-0.69998,406.1,0.98486)"
   font-size="20px"
   id="text2550"
   style="font-size:20px;fill:#000000;stroke:none;font-family:'Helvetica,sans-serif'">T2</text>

<text
   transform="matrix(0.69998,0,0,-0.69998,434.45,0.98486)"
   font-size="20px"
   id="text2552"
   style="font-size:20px;fill:#000000;stroke:none;font-family:'Helvetica,sans-serif'">T3</text>

<line
   x1="20.605"
   y1="139.88"
   x2="145.32001"
   y2="80.351997"
   id="line2554"
   style="stroke-width:0.47242999" />
<text
   transform="matrix(0.69998,0,0,-0.69998,97.138,69.014)"
   font-size="20px"
   id="text2556"
   style="font-size:20px;fill:#000000;stroke:none;font-family:'Helvetica,sans-serif'">Velo track</text>

<polyline
   points="173.67,91.691 173.73,91.691 173.98,91.691 174.36,91.691 174.99,91.629 175.88,91.629 177.07,91.566 178.52,91.5 180.29,91.438 182.36,91.312 184.7,91.188 187.28,91.059 190.05,90.934 192.95,90.746 196.03,90.555 199.18,90.305 202.4,90.051 205.67,89.801 208.88,89.547 212.16,89.234 215.37,88.918 218.52,88.605 221.67,88.227 224.82,87.848 227.91,87.469 230.99,87.027 234.08,86.59 237.16,86.086 240.32,85.582 243.46,85.012 246.61,84.383 249.89,83.754 253.23,83.125 256.69,82.367 260.22,81.613 263.94,80.793 266.33,80.289 268.79,79.723 271.3,79.156 273.89,78.527 276.54,77.895 279.3,77.203 282.08,76.574 285.04,75.816 288,75.062 291.15,74.305 294.36,73.484 297.7,72.605 301.16,71.723 304.75,70.777 308.47,69.832 312.31,68.824 316.34,67.754 320.5,66.621 324.79,65.488 329.26,64.289 333.92,63.031 338.71,61.707 343.62,60.383 348.72,59 353.95,57.551 359.3,56.102 364.78,54.59 370.39,53.016 376.06,51.441 381.79,49.863 387.59,48.289 393.38,46.652 399.11,45.078 404.84,43.504 410.52,41.93 415.99,40.355 421.35,38.906 426.51,37.457 431.43,36.07 436.09,34.746 440.5,33.551 444.53,32.418 448.18,31.41 451.52,30.465 454.42,29.645 457,28.953 459.14,28.324 460.97,27.82 462.42,27.379 463.55,27.062 464.43,26.812 465,26.684 465.38,26.559 465.57,26.496 465.63,26.496 "
   id="polyline2558"
   style="stroke-width:0.47242999;stroke-linejoin:bevel" />
<text
   transform="matrix(0.69998,0,0,-0.69998,224.69,46.338)"
   font-size="20px"
   id="text2560"
   style="font-size:20px;fill:#000000;stroke:none;font-family:'Helvetica,sans-serif'">Downstream track</text>

<polyline
   points="23.441,139.88 23.504,139.88 23.629,139.94 23.945,139.94 24.387,140.07 25.078,140.19 25.961,140.32 27.094,140.51 28.605,140.76 30.367,141.07 32.449,141.45 34.906,141.9 37.676,142.4 40.824,142.9 44.352,143.53 48.133,144.22 52.289,144.92 56.824,145.67 61.551,146.49 66.652,147.38 71.941,148.25 77.484,149.2 83.219,150.15 89.141,151.15 95.188,152.16 101.36,153.17 107.59,154.18 113.96,155.25 120.32,156.25 126.68,157.26 133.04,158.27 139.41,159.28 145.64,160.29 151.88,161.23 158.05,162.18 164.1,163.06 170.08,163.94 175.94,164.76 181.67,165.58 187.28,166.4 192.82,167.15 198.18,167.91 203.46,168.54 208.57,169.23 213.6,169.86 218.46,170.43 223.25,171 227.97,171.5 232.5,172 236.98,172.45 241.32,172.88 245.6,173.26 249.83,173.64 253.92,173.96 257.95,174.27 261.92,174.52 265.89,174.77 269.73,175.03 273.51,175.21 277.29,175.34 281.01,175.47 284.72,175.59 288.44,175.66 292.09,175.72 295.68,175.78 299.34,175.78 303.18,175.78 307.02,175.72 310.86,175.66 314.71,175.59 318.55,175.47 322.39,175.28 326.3,175.09 330.2,174.9 334.11,174.65 338.07,174.4 342.11,174.08 346.2,173.7 350.3,173.32 354.52,172.95 358.8,172.51 363.08,172 367.55,171.44 372.03,170.93 376.69,170.3 381.35,169.67 386.2,168.98 391.11,168.29 396.15,167.53 401.25,166.71 406.48,165.9 411.84,165.07 417.32,164.13 422.86,163.25 428.46,162.24 434.14,161.29 439.93,160.29 445.73,159.21 451.58,158.15 457.5,157.07 463.36,156 469.16,154.87 474.95,153.8 480.68,152.73 486.29,151.66 491.77,150.59 497.06,149.52 502.23,148.51 507.08,147.56 511.74,146.62 516.15,145.73 520.24,144.92 524.02,144.16 527.48,143.47 530.64,142.84 533.41,142.27 535.86,141.77 538,141.33 539.77,140.95 541.28,140.63 542.41,140.38 543.36,140.19 544.05,140.07 544.49,140 544.81,139.94 544.93,139.88 545,139.88 "
   id="polyline2562"
   style="stroke-width:0.47242999;stroke-linejoin:bevel" />
<text
   transform="matrix(0.69998,0,0,-0.69998,267.21,159.72)"
   font-size="20px"
   id="text2564"
   style="font-size:20px;fill:#000000;stroke:none;font-family:'Helvetica,sans-serif'">Long track</text>

<line
   x1="372.09"
   y1="193.73"
   x2="465.63"
   y2="222.08"
   id="line2566"
   style="stroke-width:0.47242999" />
<text
   transform="matrix(0.69998,0,0,-0.69998,457.13,202.24)"
   font-size="20px"
   id="text2568"
   style="font-size:20px;fill:#000000;stroke:none;font-family:'Helvetica,sans-serif'">T track</text>

<polyline
   points="23.441,139.88 23.504,139.88 23.754,139.94 24.133,140.07 24.824,140.19 25.77,140.38 27.031,140.7 28.605,141.07 30.621,141.52 32.953,142.08 35.723,142.71 38.871,143.41 42.336,144.22 46.18,145.1 50.336,146.11 54.809,147.12 59.469,148.19 64.32,149.33 69.359,150.52 74.461,151.66 79.691,152.92 84.918,154.11 90.082,155.31 95.312,156.57 100.41,157.77 105.45,158.96 110.37,160.1 115.15,161.23 119.75,162.3 124.29,163.38 128.57,164.45 132.73,165.45 136.76,166.4 140.6,167.34 144.25,168.22 147.78,169.1 151.18,169.93 154.4,170.74 157.48,171.5 160.38,172.25 163.21,172.95 165.92,173.64 168.51,174.33 170.96,174.96 173.35,175.66 175.62,176.22 177.83,176.85 179.97,177.48 182.05,178.05 184.07,178.62 187.28,179.56 190.36,180.51 193.32,181.39 196.16,182.33 198.87,183.21 201.51,184.1 204.03,184.98 206.49,185.92 208.82,186.8 211.02,187.69 213.17,188.63 215.25,189.52 217.2,190.46 219.02,191.34 220.79,192.22 222.43,193.17 223.94,194.05 225.39,194.99 226.77,195.88 228.03,196.76 229.23,197.64 230.3,198.52 231.31,199.4 232.32,200.29 233.2,201.17 234.02,201.98 234.84,202.87 235.53,203.75 236.29,204.63 236.98,205.51 237.86,206.71 238.68,207.91 239.5,209.17 240.38,210.49 241.2,211.88 242.08,213.39 243.02,215.02 243.97,216.79 244.91,218.68 245.98,220.76 247.05,222.9 248.12,225.17 249.26,227.56 250.4,229.95 251.46,232.29 252.47,234.49 253.42,236.5 254.23,238.21 254.87,239.65 255.3,240.66 255.62,241.35 255.81,241.73 255.88,241.92 "
   id="polyline2570"
   style="stroke-width:0.47242999;stroke-linejoin:bevel" />
<text
   transform="matrix(0.69998,0,0,-0.69998,258.71,233.42)"
   font-size="20px"
   id="text2572"
   style="font-size:20px;fill:#000000;stroke:none;font-family:'Helvetica,sans-serif'">Upstream track</text>

<line
   x1="573.09003"
   y1="139.88"
   x2="573.59003"
   y2="139.88"
   id="line2574"
   style="stroke-width:0.47242999" />
</g>  </g>
</svg>
